# Blender v2.79 (sub 0) OBJ File: 'creep.blend'
# www.blender.org
mtllib creep.mtl
o Cube
v 1.000000 -1.000000 -1.000000
v 1.000000 -1.000000 1.000000
v -1.000000 -1.000000 1.000000
v -1.000000 -1.000000 -1.000000
v 1.000000 1.000000 -0.999999
v 0.999999 1.000000 1.000001
v -1.000000 1.000000 1.000000
v -1.000000 1.000000 -1.000000
v 1.000000 3.975636 -0.999999
v 0.999999 3.975636 1.000001
v -1.000000 3.975636 -1.000000
v -1.000000 3.975636 1.000000
v 0.423243 5.511196 -0.423243
v 0.423243 5.511196 0.423243
v -0.423243 5.511196 -0.423243
v -0.423243 5.511196 0.423243
vt 0.242924 0.765204
vt 0.007075 0.993161
vt 0.007075 0.765204
vt 0.742924 0.233179
vt 0.507076 0.569931
vt 0.507075 0.233179
vt 0.242925 0.233179
vt 0.007075 0.006839
vt 0.242925 0.006839
vt 0.507075 0.006839
vt 0.742925 0.006839
vt 0.992925 0.006839
vt 0.757076 0.233179
vt 0.757075 0.006839
vt 0.257076 0.006839
vt 0.492925 0.233179
vt 0.257076 0.233179
vt 0.242925 0.569931
vt 0.075089 0.751527
vt 0.007076 0.569931
vt 0.007075 0.233179
vt 0.992925 0.233179
vt 0.757076 0.569931
vt 0.257075 0.569931
vt 0.356897 0.861686
vt 0.257075 0.765204
vt 0.356897 0.765204
vt 0.992925 0.569931
vt 0.825089 0.751527
vt 0.492925 0.569931
vt 0.325089 0.751527
vt 0.742925 0.569931
vt 0.575089 0.751527
vt 0.242924 0.993161
vt 0.492925 0.006839
vt 0.174911 0.751527
vt 0.257075 0.861686
vt 0.924911 0.751527
vt 0.424911 0.751527
vt 0.674911 0.751527
vn 0.0000 -1.0000 0.0000
vn -0.0000 0.0000 1.0000
vn 1.0000 -0.0000 0.0000
vn -1.0000 -0.0000 -0.0000
vn 0.0000 0.0000 -1.0000
vn 0.9361 0.3516 0.0000
vn 0.0000 1.0000 0.0000
vn -0.9361 0.3516 -0.0000
vn 0.0000 0.3516 -0.9361
vn -0.0000 0.3516 0.9361
usemtl creepmat
s off
f 2/1/1 4/2/1 1/3/1
f 6/4/2 12/5/2 7/6/2
f 5/7/3 2/8/3 1/9/3
f 6/4/2 3/10/2 2/11/2
f 3/12/4 8/13/4 4/14/4
f 1/15/5 8/16/5 5/17/5
f 9/18/6 14/19/6 10/20/6
f 5/7/3 10/20/3 6/21/3
f 7/22/4 11/23/4 8/13/4
f 8/16/5 9/24/5 5/17/5
f 15/25/7 14/26/7 13/27/7
f 12/28/8 15/29/8 11/23/8
f 11/30/9 13/31/9 9/24/9
f 10/32/10 16/33/10 12/5/10
f 2/1/1 3/34/1 4/2/1
f 6/4/2 10/32/2 12/5/2
f 5/7/3 6/21/3 2/8/3
f 6/4/2 7/6/2 3/10/2
f 3/12/4 7/22/4 8/13/4
f 1/15/5 4/35/5 8/16/5
f 9/18/6 13/36/6 14/19/6
f 5/7/3 9/18/3 10/20/3
f 7/22/4 12/28/4 11/23/4
f 8/16/5 11/30/5 9/24/5
f 15/25/7 16/37/7 14/26/7
f 12/28/8 16/38/8 15/29/8
f 11/30/9 15/39/9 13/31/9
f 10/32/10 14/40/10 16/33/10
