# Blender v2.79 (sub 0) OBJ File: 'Ancient.blend'
# www.blender.org
mtllib Ancient.mtl
o Cube
v 1.469038 2.580972 -1.167831
v 1.271130 2.580972 -1.365740
v 3.661300 -1.000000 -4.005599
v 4.233827 -1.000000 -3.433073
v 4.233829 1.000000 -3.433071
v 3.661302 1.000000 -4.005598
v -4.233825 -1.000000 -3.418678
v -3.646902 -1.000000 -4.005601
v -3.646903 1.000000 -4.005599
v -4.233827 1.000000 -3.418676
v 4.233827 -1.000000 3.567866
v 3.796093 -1.000000 4.005599
v 3.796091 1.000000 4.005602
v 4.233825 1.000000 3.567868
v -3.743185 -1.000000 4.005599
v -4.233828 -1.000000 3.514956
v -4.233829 1.000000 3.514956
v -3.743186 1.000000 4.005598
v -1.458028 2.580972 -1.162855
v -1.255143 2.580972 -1.365740
v 1.469037 2.580972 1.252227
v 1.317723 2.580972 1.403542
v -1.288426 2.580972 1.403540
v -1.458029 2.580972 1.233937
v -3.873033 0.943241 2.713587
v -3.873031 0.943241 -2.883232
v -1.632411 2.219400 0.872352
v -1.632410 2.219400 -1.062335
vt 0.737513 0.173926
vt 0.737513 0.324600
vt 0.588325 0.321906
vt 0.887407 0.635508
vt 0.995151 0.349259
vt 0.995152 0.635508
vt 0.446128 0.961690
vt 0.553872 0.539107
vt 0.553872 0.961691
vt 0.446128 0.994796
vt 0.446128 0.461660
vt 0.598987 0.333348
vt 0.476971 0.494761
vt 0.446128 0.505169
vt 0.446128 0.539107
vt 0.436431 0.039142
vt 0.004849 0.033575
vt 0.404812 0.005204
vt 0.887407 0.349259
vt 0.995151 0.313464
vt 0.563569 0.544361
vt 0.673647 0.874306
vt 0.571193 0.853273
vt 0.673647 0.526202
vt 0.571193 0.505169
vt 0.887407 0.313464
vt 0.995151 0.005204
vt 0.877710 0.033570
vt 0.728376 0.164120
vt 0.851278 0.005204
vt 0.683344 0.726147
vt 0.738890 0.540154
vt 0.703770 0.718528
vt 0.877710 0.469452
vt 0.729361 0.333348
vt 0.588325 0.175851
vt 0.854128 0.494759
vt 0.446128 0.039138
vt 0.599255 0.164121
vt 0.506593 0.026121
vt 0.708901 0.154397
vt 0.604675 0.154397
vt 0.477747 0.005205
vt 0.808107 0.026120
vt 0.738890 0.796078
vt 0.726852 0.822220
vt 0.553872 0.994796
vt 0.553872 0.505169
vt 0.436431 0.461726
vt 0.405587 0.494831
vt 0.004849 0.469520
vt 0.028430 0.494831
vt 0.031281 0.005204
vt 0.666024 0.565394
vt 0.887407 0.005204
vt 0.726852 0.505169
vn 0.0000 1.0000 -0.0000
vn 1.0000 -0.0000 0.0000
vn 0.0000 0.0000 -1.0000
vn 0.7071 0.0000 -0.7071
vn 0.2872 0.9138 -0.2872
vn -0.7071 0.0000 -0.7071
vn 0.0000 -1.0000 0.0000
vn 0.7071 0.0000 0.7071
vn -1.0000 -0.0000 -0.0000
vn -0.7071 -0.0000 0.7071
vn -0.0000 -0.0000 1.0000
vn -0.2859 0.9146 0.2859
vn -0.7012 0.4838 0.5238
vn -0.0000 0.8546 0.5193
vn 0.2848 0.9153 0.2848
vn 0.0000 0.8579 -0.5138
vn 0.4964 0.8681 0.0000
vn -0.2871 0.9138 -0.2871
vn -0.4949 0.8689 -0.0000
vn 0.1554 0.9879 0.0000
vn -0.6624 0.6648 -0.3453
vn -0.9007 0.4344 -0.0000
usemtl ancient
s off
f 23/1/1 22/2/1 2/3/1
f 5/4/2 11/5/2 4/6/2
f 3/7/3 9/8/3 6/9/3
f 6/9/4 4/10/4 3/7/4
f 6/11/5 1/12/5 5/13/5
f 7/14/6 9/8/6 8/15/6
f 8/16/7 15/17/7 7/18/7
f 14/19/8 12/20/8 11/5/8
f 16/21/9 10/22/9 7/23/9
f 18/24/10 16/21/10 15/25/10
f 13/26/11 15/27/11 12/20/11
f 18/28/12 24/29/12 17/30/12
f 19/31/13 26/32/13 28/33/13
f 18/28/14 22/2/14 23/1/14
f 13/34/15 21/35/15 22/2/15
f 6/11/16 20/36/16 2/3/16
f 5/13/17 21/35/17 14/37/17
f 9/38/18 19/39/18 20/36/18
f 26/40/19 27/41/19 28/42/19
f 10/43/20 25/44/20 26/40/20
f 24/29/21 25/44/21 17/30/21
f 19/31/22 27/45/22 24/46/22
f 21/35/1 1/12/1 22/2/1
f 1/12/1 2/3/1 22/2/1
f 2/3/1 20/36/1 23/1/1
f 20/36/1 19/39/1 23/1/1
f 19/39/1 24/29/1 23/1/1
f 5/4/2 14/19/2 11/5/2
f 3/7/3 8/15/3 9/8/3
f 6/9/4 5/47/4 4/10/4
f 6/11/5 2/3/5 1/12/5
f 7/14/6 10/48/6 9/8/6
f 8/16/7 3/49/7 15/17/7
f 3/49/7 4/50/7 12/51/7
f 4/50/7 11/52/7 12/51/7
f 12/51/7 15/17/7 3/49/7
f 15/17/7 16/53/7 7/18/7
f 14/19/8 13/26/8 12/20/8
f 16/21/9 17/54/9 10/22/9
f 18/24/10 17/54/10 16/21/10
f 13/26/11 18/55/11 15/27/11
f 18/28/12 23/1/12 24/29/12
f 19/31/13 10/56/13 26/32/13
f 18/28/14 13/34/14 22/2/14
f 13/34/15 14/37/15 21/35/15
f 6/11/16 9/38/16 20/36/16
f 5/13/17 1/12/17 21/35/17
f 9/38/18 10/43/18 19/39/18
f 26/40/19 25/44/19 27/41/19
f 10/43/20 17/30/20 25/44/20
f 24/29/21 27/41/21 25/44/21
f 19/31/22 28/33/22 27/45/22
